<svg id="Layer_1" data-name="Layer 1" xmlns="http://www.w3.org/2000/svg" viewBox="0 0 364.38 303"><defs><style>.cls-1{fill:none;}.cls-1,.cls-2{stroke:#000;stroke-miterlimit:10;}.cls-2{fill:#fff;}</style></defs><path class="cls-1" d="M368.82,515.62C430,427,489,337,550.5,248.5" transform="translate(-368.4 -231)"/><path class="cls-1" d="M732.38,516c-12.36-17-23.81-34.57-35.52-52-11.9-17.68-24-35.21-35.8-53-22.93-34.62-46.33-68.84-69.89-103q-20.43-29.7-40.67-59.54" transform="translate(-368.4 -231)"/><path class="cls-1" d="M411.21,516.44C442,471,471,428,503,380c16-24,32-45,47.36-68.13" transform="translate(-368.4 -231)"/><line class="cls-1" x1="321.1" y1="285.5" x2="181.96" y2="80.87"/><path class="cls-1" d="M548.48,516.5C525,483,502,449,478.94,414.11" transform="translate(-368.4 -231)"/><path class="cls-1" d="M548.21,516.53C554,507,561,498,568,488c7-11,13-21,21-32,11-15,21-28,30.44-43.89" transform="translate(-368.4 -231)"/><circle class="cls-2" cx="43.1" cy="285.5" r="17"/><circle class="cls-2" cx="180.1" cy="285.5" r="17"/><circle class="cls-2" cx="320.1" cy="285.5" r="17"/><circle class="cls-2" cx="182.1" cy="17.5" r="17"/><circle class="cls-2" cx="182.1" cy="80.5" r="17"/><circle class="cls-2" cx="112.1" cy="183.5" r="17"/><circle class="cls-2" cx="247.1" cy="183.5" r="17"/></svg>